<svg xmlns="http://www.w3.org/2000/svg" xmlns:xlink="http://www.w3.org/1999/xlink" width="1500" zoomAndPan="magnify" viewBox="0 0 1125 149.999998" height="200" preserveAspectRatio="xMidYMid meet" version="1.0"><path fill="none" d="M 449.558594 120.773438 C 443.921875 119.65625 439.40625 115.667969 437.878906 110.390625 C 436.644531 106.285156 436.472656 94.722656 437.53125 91.03125 C 439.292969 85.046875 443.871094 82.640625 454.074219 82.167969 C 468.5625 81.578125 477.601562 84.691406 481.355469 91.558594 C 482.941406 94.429688 483.117188 95.082031 483.054688 100.535156 C 482.992188 105.285156 482.761719 106.992188 481.652344 109.515625 C 479.128906 115.382812 473.03125 119.371094 464.519531 120.78125 C 460.234375 121.425781 453.082031 121.425781 449.558594 120.78125 Z M 449.558594 120.773438 " fill-opacity="1" fill-rule="nonzero"/><path fill="none" d="M 447.445312 62.691406 C 444.574219 61.933594 441.105469 60.171875 439.933594 58.820312 C 437.414062 55.949219 436.824219 53.714844 436.589844 46.203125 C 436.179688 34.355469 437.707031 30.1875 443.335938 27.433594 C 445.917969 26.144531 446.910156 26.027344 454.65625 26.027344 C 464.511719 26.027344 468.382812 26.964844 472.199219 30.195312 C 475.542969 33.128906 476.664062 36.410156 476.601562 43.625 C 476.601562 48.964844 476.421875 49.902344 474.785156 53.363281 C 472.96875 57.300781 469.855469 60.402344 466.101562 62.109375 C 463.929688 63.050781 450.675781 63.460938 447.445312 62.699219 Z M 447.445312 62.691406 " fill-opacity="1" fill-rule="nonzero"/><path fill="none" d="M 701.066406 78.949219 C 694.90625 77.480469 691.855469 74.84375 690.09375 69.328125 C 688.921875 65.570312 688.394531 49.734375 689.273438 44.039062 C 690.855469 34.003906 694.492188 31.1875 706.636719 30.605469 C 721.597656 29.898438 730.925781 33.773438 734.859375 42.285156 C 736.503906 45.808594 736.558594 46.335938 736.503906 53.898438 C 736.503906 60.644531 736.328125 62.289062 735.21875 65.167969 C 732.75 71.328125 728.0625 75.78125 721.605469 77.957031 C 716.859375 79.601562 706 80.066406 701.074219 78.957031 Z M 701.066406 78.949219 " fill-opacity="1" fill-rule="nonzero"/><path fill="none" d="M 325.128906 79.179688 C 321.140625 77.832031 318.324219 75.078125 316.679688 70.972656 C 315.445312 67.921875 315.328125 66.75 315.328125 55.070312 C 315.328125 42.453125 315.328125 42.453125 317.261719 38.464844 C 318.664062 35.59375 319.898438 34.066406 321.722656 32.832031 C 325.535156 30.195312 328.527344 29.667969 338.328125 29.960938 C 345.484375 30.195312 347.601562 30.488281 350.292969 31.542969 C 358.976562 34.890625 363.144531 42.515625 363.144531 55.125 C 363.144531 68.210938 357.394531 76.542969 346.421875 79.476562 C 341.90625 80.710938 329 80.53125 325.128906 79.179688 Z M 325.128906 79.179688 " fill-opacity="1" fill-rule="nonzero"/><path fill="none" d="M 884.691406 127.230469 C 884.34375 126.640625 884.101562 123.886719 884.101562 121.183594 C 884.101562 116.195312 884.101562 116.195312 892.195312 115.785156 C 896.597656 115.605469 904.457031 115.195312 909.617188 114.84375 C 914.777344 114.550781 920.527344 114.316406 922.40625 114.316406 C 925.8125 114.316406 925.8125 114.316406 925.632812 120.65625 C 925.457031 126.933594 925.457031 126.933594 920.179688 127.285156 C 917.308594 127.515625 908.210938 127.8125 900.058594 127.992188 C 886.152344 128.285156 885.214844 128.222656 884.683594 127.230469 Z M 884.691406 127.230469 " fill-opacity="1" fill-rule="nonzero"/><path fill="none" d="M 1012.355469 127.460938 C 1012.179688 126.933594 1012.007812 124.351562 1012.007812 121.660156 C 1012.007812 116.203125 1009.484375 116.847656 1036.359375 115.496094 C 1054.484375 114.558594 1052.550781 113.914062 1052.375 120.898438 C 1052.195312 126.941406 1052.195312 126.941406 1049.261719 127.292969 C 1047.679688 127.523438 1038.761719 127.820312 1029.488281 128 C 1014.824219 128.292969 1012.652344 128.230469 1012.355469 127.46875 Z M 1012.355469 127.460938 " fill-opacity="1" fill-rule="nonzero"/><path fill="none" d="M 573 91.210938 C 570.128906 90.152344 569.066406 89.214844 568.070312 86.925781 C 566.140625 82.175781 567.542969 74.253906 573.527344 56.242188 C 577.398438 44.691406 579.6875 39.699219 581.738281 38.351562 C 584.082031 36.820312 589.417969 36.589844 591.949219 37.882812 C 594.648438 39.289062 596.699219 43.457031 601.507812 57.710938 C 606.320312 71.847656 607.375 76.660156 607.140625 82.640625 C 606.910156 86.808594 606.730469 87.453125 605.210938 89.035156 C 604.09375 90.207031 602.570312 91.03125 600.632812 91.378906 C 596.347656 92.320312 575.753906 92.140625 573 91.203125 Z M 573 91.210938 " fill-opacity="1" fill-rule="nonzero"/><path fill="none" d="M 991.296875 60.347656 C 991.0625 58.292969 990.886719 54.597656 990.886719 52.140625 C 990.886719 47.621094 990.886719 47.621094 994.292969 47.265625 C 996.109375 47.03125 1002.859375 46.738281 1009.253906 46.503906 C 1020.867188 46.09375 1020.867188 46.09375 1020.691406 54.1875 C 1020.511719 62.34375 1020.511719 62.34375 1018.929688 62.753906 C 1018.050781 62.988281 1011.535156 63.34375 1004.496094 63.578125 C 991.644531 64.042969 991.644531 64.042969 991.296875 60.347656 Z M 991.296875 60.347656 " fill-opacity="1" fill-rule="nonzero"/><path fill="#ffffff" d="M 201.6875 145.707031 C 187.960938 143.417969 177.695312 136.960938 170.773438 126.40625 C 164.726562 117.132812 161.855469 105.8125 160.035156 84.402344 C 158.976562 71.554688 158.976562 23.039062 160.035156 18.871094 C 162.089844 10.949219 167.484375 7.078125 177.167969 6.496094 C 181.21875 6.261719 183.03125 6.433594 185.027344 7.203125 C 188.78125 8.667969 191.539062 11.664062 192.65625 15.707031 C 193.773438 19.640625 193.890625 30.488281 193.003906 44.511719 C 190.1875 89.097656 191.476562 101.769531 199.515625 110.515625 C 205.730469 117.257812 218.582031 118.609375 226.621094 113.269531 C 231.367188 110.160156 235.070312 102.414062 236.359375 92.917969 C 237.117188 87.515625 237.179688 67.222656 236.421875 58.300781 C 236.125 54.777344 235.714844 44.867188 235.480469 36.300781 C 235.070312 19.347656 235.480469 15.769531 238.296875 11.421875 C 241.113281 7.140625 247.507812 4.734375 254.136719 5.441406 C 262.585938 6.316406 267.21875 10.78125 268.746094 19.640625 C 269.570312 24.390625 269.097656 72.4375 268.15625 84.707031 C 264.875 125.074219 253.257812 142.261719 226.796875 145.953125 C 220.816406 146.777344 207.375 146.660156 201.6875 145.722656 Z M 201.6875 145.707031 " fill-opacity="1" fill-rule="nonzero"/><path fill="#ffffff" d="M 437.359375 145.179688 C 426.679688 143.363281 421.636719 141.128906 416.710938 135.789062 C 413.777344 132.675781 412.839844 131.15625 411.308594 126.925781 C 408.4375 118.949219 407.671875 112.96875 407.4375 96.128906 C 407.320312 87.917969 407.027344 73.128906 406.847656 63.273438 C 406.320312 39.335938 407.492188 29.300781 411.835938 19.976562 C 415.414062 12.347656 423.453125 6.773438 434.070312 4.601562 C 441.167969 3.136719 455.773438 2.546875 463.460938 3.429688 C 492.445312 6.597656 505.410156 17.515625 506.699219 39.808594 C 507.34375 51.128906 504.410156 58.875 496.78125 65.859375 C 491.972656 70.257812 491.972656 70.257812 494.851562 71.492188 C 505.644531 76.125 509.867188 79.296875 512.746094 85.164062 C 516.382812 92.730469 517.082031 104.523438 514.445312 114.792969 C 510.6875 129.574219 498.015625 139.957031 478.71875 144.070312 C 472.734375 145.355469 470.214844 145.535156 457.015625 145.714844 C 446.515625 145.890625 440.648438 145.714844 437.359375 145.1875 Z M 462.765625 119.011719 C 468.335938 118.074219 472.503906 116.3125 475.667969 113.441406 C 479.480469 109.980469 481.125 106.164062 481.1875 100.589844 C 481.300781 91.316406 475.785156 86.273438 463.292969 84.34375 C 457.488281 83.402344 449.679688 83.992188 445.925781 85.628906 C 440.410156 87.972656 438.59375 91.613281 438.648438 100.296875 C 438.710938 107.101562 439.996094 111.382812 442.929688 114.316406 C 447.679688 119.066406 453.671875 120.480469 462.757812 119.011719 Z M 464.347656 60.285156 C 468.042969 58.640625 471.214844 55.539062 473.03125 51.664062 C 474.496094 48.554688 474.792969 47.203125 474.792969 43.457031 C 474.792969 37.882812 473.558594 34.65625 470.453125 31.957031 C 466.878906 28.90625 462.59375 27.789062 454.671875 27.789062 C 448.867188 27.851562 447.570312 28.023438 445.109375 29.191406 C 439.710938 31.832031 437.894531 36.347656 438.367188 46.210938 C 438.832031 55.304688 441.535156 59 449.222656 60.9375 C 452.21875 61.699219 462.191406 61.289062 464.363281 60.292969 Z M 464.347656 60.285156 " fill-opacity="1" fill-rule="nonzero"/><path fill="#ffffff" d="M 675.257812 145.355469 C 667.21875 144.007812 663.175781 140.132812 661.46875 132.210938 C 660.414062 127.222656 660.296875 108.746094 661.234375 94.082031 C 662.238281 78.359375 662.113281 58.472656 661.003906 48.089844 C 659.769531 37.117188 659.769531 32.539062 660.886719 27.261719 C 663.058594 17.113281 668.808594 11.066406 679.773438 7.550781 C 688.339844 4.851562 692.625 4.324219 706.644531 4.386719 C 724.71875 4.449219 733.519531 5.96875 743.898438 10.894531 C 748.53125 13.121094 750.292969 14.355469 754.226562 18.34375 C 759.800781 23.917969 762.972656 29.730469 765.136719 38.351562 C 766.898438 45.386719 767.070312 61.992188 765.433594 67.914062 C 762.734375 77.714844 759.390625 83.582031 752.699219 90.269531 C 745.714844 97.191406 739.734375 100.535156 729.351562 103.238281 C 722.722656 105 710.632812 105.347656 703.417969 104.058594 C 700.367188 103.53125 697.023438 102.941406 695.96875 102.769531 C 694.089844 102.476562 694.089844 102.476562 694.207031 117.320312 C 694.324219 131.40625 694.269531 132.398438 693.035156 135.679688 C 691.335938 140.195312 689.339844 142.664062 686.230469 144.183594 C 683.117188 145.714844 679.488281 146.117188 675.257812 145.355469 Z M 719.90625 76.1875 C 726.246094 74.011719 730.996094 69.558594 733.402344 63.398438 C 734.457031 60.761719 734.75 58.765625 734.75 53.894531 C 734.8125 48.257812 734.636719 47.382812 733.105469 44.039062 C 730.289062 37.875 725.246094 34.53125 716.625 32.949219 C 708.238281 31.421875 698.667969 32.714844 695.332031 35.882812 C 691.636719 39.289062 690.226562 46.09375 690.699219 57.414062 C 691.289062 70.792969 693.925781 75.078125 702.84375 77.1875 C 707.304688 78.242188 715.21875 77.777344 719.914062 76.1875 Z M 719.90625 76.1875 " fill-opacity="1" fill-rule="nonzero"/><path fill="#ffffff" d="M 298.140625 143.710938 C 294.269531 142.363281 290.863281 139.195312 289.164062 135.207031 C 287.347656 130.984375 286.875 122.945312 287.464844 107.574219 C 288.285156 88.097656 288.109375 59.875 287.167969 45.15625 C 286.167969 29.84375 286.523438 25.617188 289.226562 20.042969 C 292.507812 13.355469 299.195312 8.839844 310.167969 5.960938 C 315.328125 4.609375 317.324219 4.433594 330.058594 4.199219 C 344.785156 3.851562 350.355469 4.316406 358.511719 6.371094 C 375.46875 10.59375 386.082031 20.804688 390.132812 36.589844 C 392.949219 47.613281 392.949219 63.691406 390.195312 73.433594 C 387.671875 82.113281 382.101562 90.734375 375.582031 95.902344 C 371.183594 99.363281 362.851562 103.46875 356.984375 105 C 350.355469 106.761719 335.691406 107.171875 327.355469 105.875 C 324.011719 105.347656 321.195312 105 321.078125 105.113281 C 320.960938 105.230469 321.140625 107.816406 321.492188 110.863281 C 322.3125 118.902344 322.195312 128.757812 321.195312 132.453125 C 320.195312 136.207031 317.386719 140.609375 314.800781 142.371094 C 311.046875 144.953125 303.417969 145.535156 298.140625 143.71875 Z M 344.660156 77.707031 C 356.625 74.542969 362.734375 64.273438 360.910156 50.484375 C 360.085938 44.269531 358.09375 40.042969 354.515625 36.9375 C 350.464844 33.359375 346.539062 32.0625 338.382812 31.714844 C 326.945312 31.25 322.484375 33.242188 319.023438 40.21875 C 317.089844 44.207031 317.089844 44.207031 317.089844 55.0625 C 317.089844 64.917969 317.269531 66.207031 318.441406 69.203125 C 321.140625 75.890625 325.953125 78.476562 335.863281 78.53125 C 339.089844 78.53125 343.078125 78.179688 344.660156 77.707031 Z M 344.660156 77.707031 " fill-opacity="1" fill-rule="nonzero"/><path fill="#ffffff" d="M 47.984375 143.308594 C 43.054688 141.78125 39.363281 136.734375 38.011719 129.636719 C 37.367188 126.292969 37.660156 113.152344 38.71875 97.011719 C 39.421875 86.21875 39.421875 63.042969 38.71875 54.1875 C 38.421875 50.316406 38.011719 42.277344 37.777344 36.292969 C 37.1875 20.160156 38.65625 13.472656 43.644531 8.839844 C 46.988281 5.726562 49.691406 4.90625 56.023438 4.90625 C 60.304688 4.96875 61.824219 5.199219 64.0625 6.308594 C 67.753906 8.070312 70.160156 10.941406 71.394531 15.054688 C 72.628906 18.925781 72.796875 32.359375 71.921875 48.492188 C 71.457031 56.53125 71.511719 58.167969 72.214844 58.640625 C 72.683594 58.9375 73.21875 59.167969 73.449219 59.167969 C 75.03125 59.167969 81.488281 51.601562 98.972656 29.246094 C 112.699219 11.648438 117.394531 7.660156 124.960938 7.070312 C 136.636719 6.246094 143.847656 14.285156 141.976562 25.957031 C 140.511719 35.402344 131.121094 46.722656 111.472656 62.683594 C 102.199219 70.25 99.738281 72.65625 99.738281 74.121094 C 99.738281 76.179688 103.84375 80.8125 112.234375 88.375 C 121.328125 96.46875 127.25 101.046875 135.582031 106.449219 C 142.914062 111.144531 145.671875 113.664062 147.726562 117.539062 C 149.128906 120.175781 149.308594 121.117188 149.308594 126.335938 C 149.308594 133.027344 148.71875 134.609375 144.847656 138.363281 C 138.335938 144.703125 127.480469 144.527344 117.625 138.015625 C 112.054688 134.324219 96.039062 118.066406 86.238281 106.101562 C 76.910156 94.664062 72.277344 89.671875 71.097656 89.671875 C 70.394531 89.671875 70.277344 90.550781 70.570312 95.128906 C 71.859375 114.253906 72.152344 123.996094 71.625 128.394531 C 70.507812 137.078125 67.460938 141.539062 61.476562 143.355469 C 57.722656 144.472656 51.675781 144.410156 47.984375 143.292969 Z M 47.984375 143.308594 " fill-opacity="1" fill-rule="nonzero"/><path fill="#ffffff" d="M 867.449219 141.894531 C 866.046875 140.609375 865.277344 139.3125 864.8125 137.316406 C 863.9375 133.382812 863.050781 119.71875 862.640625 104.347656 C 862.34375 91.730469 862.34375 91.085938 863.515625 89.269531 C 865.277344 86.515625 867.855469 85.398438 873.253906 85.101562 C 881.644531 84.636719 884.28125 86.863281 884.988281 95.019531 C 885.398438 99.652344 885.398438 99.652344 890.503906 99.652344 C 896.140625 99.652344 916.199219 98.652344 920.839844 98.125 C 923.832031 97.828125 923.832031 97.828125 924.246094 92.785156 C 924.949219 84.574219 927.175781 82.632812 936.210938 82.632812 C 940.671875 82.632812 941.726562 82.8125 943.425781 83.984375 C 946.65625 86.15625 946.949219 87.796875 946.59375 101.40625 C 946.003906 121.410156 945.1875 136.898438 944.480469 138.839844 C 943.363281 142.003906 941.609375 142.648438 932.515625 143.121094 C 928 143.355469 911.984375 143.585938 896.90625 143.585938 C 869.507812 143.648438 869.507812 143.648438 867.457031 141.886719 Z M 918.433594 125.585938 C 923.710938 125.171875 923.710938 125.171875 923.886719 120.65625 C 924.066406 115.320312 925.648438 115.785156 911.394531 116.605469 C 906.234375 116.957031 898.375 117.367188 893.972656 117.546875 C 885.878906 117.957031 885.878906 117.957031 885.878906 121.183594 C 885.878906 126.640625 885.058594 126.40625 900.082031 126.175781 C 907.234375 126.058594 915.570312 125.761719 918.441406 125.585938 Z M 918.433594 125.585938 " fill-opacity="1" fill-rule="nonzero"/><path fill="#ffffff" d="M 996.046875 142.773438 C 994.113281 141.71875 992.933594 139.542969 992.40625 136.316406 C 991.878906 132.738281 990.296875 104.992188 990.296875 98.597656 C 990.296875 89.851562 992.351562 87.507812 1000.507812 86.917969 C 1009.011719 86.390625 1012.125 88.617188 1012.472656 95.71875 C 1012.589844 98.0625 1012.882812 100.179688 1013.117188 100.414062 C 1013.527344 100.824219 1029.777344 100.234375 1044.917969 99.292969 C 1050.605469 98.945312 1050.605469 98.945312 1050.84375 94.367188 C 1051.078125 89.207031 1052.015625 87.328125 1055.476562 85.273438 C 1058.117188 83.746094 1066.503906 83.691406 1069.320312 85.15625 C 1073.078125 87.152344 1073.253906 88.027344 1072.78125 106.101562 C 1072.316406 126.105469 1071.546875 136.488281 1070.4375 139.1875 C 1068.675781 143.355469 1069.730469 143.238281 1031.664062 143.472656 C 1001.6875 143.648438 997.457031 143.585938 996.054688 142.765625 Z M 1047.5 125.523438 C 1050.433594 125.171875 1050.433594 125.171875 1050.613281 120.890625 C 1050.789062 116.015625 1053.722656 116.429688 1027.03125 117.839844 C 1021.28125 118.191406 1015.941406 118.429688 1015.179688 118.429688 C 1013.894531 118.429688 1013.777344 118.664062 1013.777344 121.597656 C 1013.777344 126.871094 1012.488281 126.46875 1029.496094 126.175781 C 1037.769531 126.058594 1045.925781 125.761719 1047.507812 125.53125 Z M 1047.5 125.523438 " fill-opacity="1" fill-rule="nonzero"/><path fill="#ffffff" d="M 534.101562 141.664062 C 528.699219 139.140625 526.292969 134.625 526.292969 126.933594 C 526.230469 120.308594 527.820312 114.148438 537.382812 83.8125 C 545.011719 59.757812 553.691406 34.003906 555.980469 28.664062 C 562.082031 14.464844 569.769531 7.488281 581.621094 5.371094 C 592.234375 3.492188 603.039062 6.371094 609.484375 12.820312 C 615.53125 18.863281 620.753906 32.476562 637.941406 86.445312 C 647.089844 115.367188 648.269531 119.882812 648.269531 126.867188 C 648.269531 133.902344 646.160156 138.304688 641.402344 141.121094 C 639.230469 142.40625 637.761719 142.765625 633.835938 142.9375 C 629.375 143.167969 628.613281 143.050781 625.679688 141.585938 C 621.574219 139.589844 619.167969 136.480469 615.878906 128.914062 C 610.953125 117.476562 607.492188 114.714844 596.867188 113.65625 C 587.128906 112.65625 574.28125 113.246094 570.113281 114.828125 C 565.773438 116.476562 562.484375 119.875 560.023438 125.097656 C 558.96875 127.386719 557.324219 130.847656 556.386719 132.777344 C 554.328125 137.179688 550.046875 141.578125 546.996094 142.398438 C 542.945312 143.519531 537.4375 143.160156 534.09375 141.640625 Z M 598.871094 89.625 C 604.851562 88.390625 606.550781 84.054688 604.558594 75.191406 C 603.207031 69.148438 596.464844 49.320312 594.113281 44.511719 C 591.941406 40.109375 589.417969 38.351562 586.136719 38.992188 C 583.085938 39.636719 581.09375 42.222656 578.453125 49.027344 C 575.40625 56.886719 570.414062 72.964844 569.539062 77.714844 C 568.367188 84.054688 570.003906 87.75 574.644531 89.394531 C 577.515625 90.394531 594.53125 90.566406 598.871094 89.625 Z M 598.871094 89.625 " fill-opacity="1" fill-rule="nonzero"/><path fill="#ffffff" d="M 975.808594 80.941406 C 972.050781 79.179688 970.40625 76.25 969.761719 69.972656 C 968.761719 60.644531 967.296875 32.125 967.179688 21.511719 C 967.117188 11.835938 967.179688 11.066406 968.351562 9.484375 C 970.578125 6.550781 972.984375 5.550781 978.910156 5.316406 C 983.375 5.082031 984.714844 5.253906 986.949219 6.253906 C 990.886719 8.015625 991.46875 9.539062 991.878906 19.339844 C 992.226562 27.492188 992.226562 27.492188 996.394531 27.433594 C 998.683594 27.433594 1004.667969 27.082031 1009.65625 26.726562 C 1018.75 26.019531 1018.75 26.019531 1019.101562 18.6875 C 1019.277344 14.636719 1019.691406 10.648438 1020.039062 9.824219 C 1021.621094 6.1875 1026.253906 4.308594 1032.828125 4.71875 C 1037.699219 5.066406 1040.339844 6.300781 1041.742188 8.886719 C 1042.742188 10.585938 1042.796875 12.820312 1042.679688 35.992188 C 1042.621094 49.894531 1042.269531 64.328125 1041.976562 68.140625 C 1041.332031 75.820312 1040.445312 77.941406 1037.398438 79.40625 C 1034.640625 80.757812 1023.722656 81.402344 999.382812 81.8125 C 979.144531 82.105469 978.144531 82.046875 975.800781 80.933594 Z M 1017.230469 60.9375 C 1018.757812 60.589844 1018.757812 60.472656 1018.929688 54.25 C 1019.109375 47.910156 1019.109375 47.910156 1009.835938 48.265625 C 1004.730469 48.5 998.808594 48.792969 996.636719 48.972656 C 992.648438 49.320312 992.648438 49.320312 992.648438 52.140625 C 992.648438 53.667969 992.824219 56.539062 993.058594 58.53125 C 993.40625 62.226562 993.40625 62.226562 1004.558594 61.816406 C 1010.71875 61.582031 1016.40625 61.171875 1017.230469 60.9375 Z M 1017.230469 60.9375 " fill-opacity="1" fill-rule="nonzero"/><path fill="#ffffff" d="M 892.910156 80.941406 C 890.15625 80.351562 887.984375 78.886719 887.105469 76.890625 C 886.695312 76.015625 886.050781 72.429688 885.757812 68.851562 C 885.40625 65.332031 885.050781 62.28125 884.996094 62.164062 C 884.878906 62.046875 878.71875 62.398438 871.386719 62.871094 C 846.335938 64.632812 846.507812 64.632812 844.21875 63.460938 C 841.050781 61.816406 839.820312 59.121094 839.820312 53.898438 C 839.820312 50.617188 840.113281 49.027344 840.875 47.855469 C 843.046875 44.511719 843.574219 44.394531 864.402344 42.75 C 875.078125 41.925781 884.171875 41.050781 884.585938 40.753906 C 885.050781 40.460938 885.289062 38.699219 885.289062 35.480469 C 885.289062 30.605469 885.289062 30.605469 881.714844 30.203125 C 879.71875 30.023438 870.277344 29.851562 860.707031 29.851562 C 844.511719 29.851562 843.226562 29.789062 841.464844 28.679688 C 838.53125 26.917969 837.476562 24.398438 837.476562 19.003906 C 837.476562 15.015625 837.707031 14.015625 838.824219 12.378906 C 839.585938 11.375 840.757812 10.207031 841.410156 9.855469 C 843.285156 8.855469 859.652344 8.15625 884.234375 7.976562 C 912.046875 7.800781 909.578125 6.511719 909.8125 21.707031 C 909.988281 32.320312 909.988281 32.320312 917.144531 32.085938 C 921.078125 31.972656 924.65625 31.675781 925.066406 31.445312 C 925.53125 31.09375 925.773438 28.859375 925.773438 23.519531 C 925.773438 14.953125 926.480469 12.78125 929.878906 10.789062 C 931.578125 9.785156 932.988281 9.617188 938.085938 9.617188 C 944.894531 9.617188 946.832031 10.207031 948.882812 13.023438 C 950.054688 14.667969 950.117188 15.25 950 36.191406 C 949.882812 61.480469 949.292969 71.21875 947.710938 73.914062 C 945.949219 76.847656 942.898438 78.132812 937.496094 78.132812 C 931.746094 78.132812 928.929688 76.847656 927.285156 73.554688 C 926.347656 71.738281 926.113281 69.621094 925.882812 62.414062 C 925.585938 53.550781 925.585938 53.550781 917.609375 53.792969 C 913.210938 53.90625 909.570312 54.085938 909.515625 54.203125 C 909.398438 54.265625 909.105469 57.726562 908.753906 61.886719 C 907.699219 75.90625 907.054688 77.785156 902.890625 79.839844 C 900.421875 81.011719 895.734375 81.539062 892.917969 80.957031 Z M 892.910156 80.941406 " fill-opacity="1" fill-rule="nonzero"/><path fill="#ffffff" d="M 1058.707031 79.710938 C 1056.648438 79.066406 1055.011719 77.597656 1053.777344 75.308594 C 1052.957031 73.78125 1052.777344 69.855469 1052.605469 44.804688 C 1052.375 12.59375 1052.3125 13.300781 1056.59375 10.78125 C 1059.464844 9.132812 1070.027344 9.078125 1072.789062 10.71875 C 1075.957031 12.59375 1076.195312 13.535156 1076.546875 23.390625 C 1076.777344 30.839844 1077.011719 32.484375 1077.71875 32.601562 C 1078.183594 32.660156 1080.417969 32.894531 1082.589844 33.066406 C 1087.515625 33.53125 1090.101562 35.410156 1091.210938 39.523438 C 1092.148438 42.804688 1091.621094 47.792969 1090.15625 49.734375 C 1087.867188 52.78125 1086.105469 53.605469 1081.179688 53.839844 C 1076.546875 54.015625 1076.546875 54.015625 1076.484375 57.066406 C 1076.484375 58.710938 1076.25 63.109375 1076.015625 66.867188 C 1075.488281 74.671875 1074.730469 76.542969 1071.089844 78.601562 C 1068.453125 80.066406 1061.699219 80.65625 1058.714844 79.71875 Z M 1058.707031 79.710938 " fill-opacity="1" fill-rule="nonzero"/></svg>